<?xml version="1.0" encoding="UTF-8"?>
<!DOCTYPE svg PUBLIC "-//W3C//DTD SVG 1.1//EN" "http://www.w3.org/Graphics/SVG/1.1/DTD/svg11.dtd">
<!-- Creator: CorelDRAW -->
<svg xmlns="http://www.w3.org/2000/svg" xml:space="preserve" width="587px" height="533px" version="1.1" style="shape-rendering:geometricPrecision; text-rendering:geometricPrecision; image-rendering:optimizeQuality; fill-rule:evenodd; clip-rule:evenodd"
viewBox="0 0 805.07 730.15"
 xmlns:xlink="http://www.w3.org/1999/xlink"
 xmlns:xodm="http://www.corel.com/coreldraw/odm/2003">
 <defs>
  <style type="text/css">
   <![CDATA[
    .fil0 {fill:#561624}
   ]]>
  </style>
 </defs>
 <g id="Camada_x0020_1">
  <metadata id="CorelCorpID_0Corel-Layer"/>
  <path class="fil0" d="M32.32 484.59c11.04,-2.81 166.84,-0.79 191.57,-0.44 2.43,4.21 -0.31,-3.21 2.6,6.14 4.09,13.15 2.68,26.35 14.99,45.22 10.43,15.99 20.16,25.99 35.3,34.72 32.63,18.81 81.6,13.32 123.23,13.36 70.79,0.06 164.6,16.31 178.18,-98.5 25.65,-2.46 110.57,-0.23 147.51,-0.47 11.61,-0.07 39.16,-2.47 47.1,0.94 0.42,48.1 -0.37,96.55 -0.12,144.75 0.16,30.46 4.07,44.53 -14.4,59.08 -15.23,11.98 -43.52,7.94 -66.35,7.92l-583.85 -0.01c-24.1,-0.01 -48.12,4.31 -62.63,-9.2 -16.17,-15.04 -13.7,-29.89 -13.56,-57.79 0.21,-40.4 -4.09,-108.99 0.43,-145.72zm354.75 -421.23l0.01 106.15c0.02,12.99 -2.39,19.7 7.35,27.68 19.2,11.77 23.3,-11.59 23.29,-27.68l-0.11 -91.67c-0.08,-19.43 7.41,-69.34 -9.39,-76.19 -28.66,-11.69 -21.13,42.02 -21.15,61.71zm103.05 139.08c28.07,18.06 29.33,-4.44 35.03,-25.97l31.89 -117.78c5.33,-20.28 14.41,-47.45 -19.38,-40.68 -8.52,16.41 -50.62,167.41 -47.54,184.43zm-193.85 5.68c38.54,6.52 17.05,-38.61 3.92,-88.33 -4.94,-18.71 -19.74,-94.76 -32.14,-100.92 -9.07,-4.51 -19.14,0.82 -21.66,7.04 -3.39,8.37 1.75,19.93 3.9,27.89 4.54,16.87 9.87,36.49 14.18,53.48 5.25,20.75 19.69,89.14 31.8,100.84zm-16.89 86l275.04 -0.32c47.1,-0.51 32.3,-7.29 90.62,55.33 7.09,7.62 95.38,96.02 97.18,102.29l-192.77 1.2c-7.08,15.69 14.83,101.13 -79.48,101.33l-123.04 0.01c-44.7,0.01 -80.09,-10.35 -88.89,-56.66 -3.39,-17.87 0.87,-29.42 -1.24,-44.66 -62.68,-2 -131.94,-0.54 -194.64,-0.23 4.52,-9.67 30.62,-33.65 43.79,-48.51 18.25,-20.58 33.12,-32.14 47.15,-47.05 15.84,-16.84 28.8,-31.39 45.32,-48.62 13.24,-13.8 10.49,-15.48 32.66,-14.76 16.12,0.52 32.16,0.7 48.3,0.65zm-69.43 -31.28c-19.89,3.91 -138.9,133.72 -160.85,156.5 -12.9,13.39 -26.88,25.59 -40.03,39.51 -13.38,14.16 -7.98,37.77 -8.05,72.55 -0.06,27.51 -3.56,139.71 3.54,156.67 19.78,47.19 57.16,40.99 115.59,40.81 88.2,-0.27 607.17,3.65 633.22,-1.06 20.19,-3.66 37.02,-20.69 44.36,-35.15 9.88,-19.47 5.86,-50.76 5.87,-74.42 0,-25.38 5.16,-144.31 -3.83,-156.1l-79.71 -79.55c-8.5,-9.08 -109.42,-115.9 -117.65,-118.78 -9,-3.15 -63.12,-1.68 -76.95,-1.68 -53.08,0 -106.15,0.09 -159.23,0.02 -33.21,-0.05 -130.76,-4.35 -156.28,0.68z"/>
 </g>
</svg>
