<svg width="29" height="26" viewBox="0 0 29 26" fill="none" xmlns="http://www.w3.org/2000/svg">
<path d="M16.5714 0.5C9.7081 0.5 4.14286 6.09722 4.14286 13H0L5.3719 18.4028L5.46857 18.5972L11.0476 13H6.90476C6.90476 7.625 11.2271 3.27778 16.5714 3.27778C21.9157 3.27778 26.2381 7.625 26.2381 13C26.2381 18.375 21.9157 22.7222 16.5714 22.7222C13.9062 22.7222 11.4895 21.625 9.74952 19.8611L7.78857 21.8333C10.0395 24.0972 13.1329 25.5 16.5714 25.5C23.4348 25.5 29 19.9028 29 13C29 6.09722 23.4348 0.5 16.5714 0.5ZM15.1905 7.44444V14.3889L21.101 17.9167L22.0952 16.2361L17.2619 13.3472V7.44444H15.1905Z" fill="#561624"/>
</svg>
