<svg width="22" height="25" viewBox="0 0 22 25" fill="none" xmlns="http://www.w3.org/2000/svg">
<path d="M2.75 25C1.99375 25 1.34658 24.7205 0.8085 24.1614C0.2695 23.6014 0 22.9286 0 22.1429V9.28571C0 8.83333 0.0976247 8.40476 0.292875 8C0.487208 7.59524 0.75625 7.2619 1.1 7L9.35 0.571429C9.60208 0.380953 9.86562 0.238095 10.1406 0.142857C10.4156 0.0476189 10.7021 0 11 0C11.2979 0 11.5844 0.0476189 11.8594 0.142857C12.1344 0.238095 12.3979 0.380953 12.65 0.571429L20.9 7C21.2438 7.2619 21.5133 7.59524 21.7085 8C21.9028 8.40476 22 8.83333 22 9.28571V22.1429C22 22.9286 21.731 23.6014 21.1929 24.1614C20.6539 24.7205 20.0063 25 19.25 25H13.75V15H8.25V25H2.75Z" fill="#561624"/>
</svg>
