<svg width="20" height="26" viewBox="0 0 20 26" fill="none" xmlns="http://www.w3.org/2000/svg">
<path d="M0.625 1.125C0.03125 1.71875 0 2.15625 0 13C0 23.8437 0.03125 24.2812 0.625 24.875C1.21875 25.4687 1.65625 25.5 10 25.5C18.3438 25.5 18.7812 25.4687 19.375 24.875C19.9688 24.2812 20 23.8437 20 16.0312V7.84375L16.3125 4.15625L12.6562 0.499996H6.9375C1.65625 0.499996 1.21875 0.531246 0.625 1.125ZM17.8125 9.15625C17.8125 9.21875 16.3438 9.25 14.5312 9.25H11.25V5.90625V2.53125L14.5312 5.8125C16.3438 7.625 17.8125 9.125 17.8125 9.15625ZM15 14.25V15.5H10H5V14.25V13H10H15V14.25ZM15 19.25V20.5H10H5V19.25V18H10H15V19.25Z" fill="#4B4B4B"/>
</svg>
