<svg width="22" height="26" viewBox="0 0 22 26" fill="none" xmlns="http://www.w3.org/2000/svg">
<path d="M2.75 25.5C1.99375 25.5 1.34658 25.2205 0.8085 24.6614C0.2695 24.1014 0 23.4286 0 22.6429V9.78571C0 9.33333 0.0976247 8.90476 0.292875 8.5C0.487208 8.09524 0.75625 7.7619 1.1 7.5L9.35 1.07143C9.60208 0.880953 9.86562 0.738095 10.1406 0.642857C10.4156 0.547619 10.7021 0.5 11 0.5C11.2979 0.5 11.5844 0.547619 11.8594 0.642857C12.1344 0.738095 12.3979 0.880953 12.65 1.07143L20.9 7.5C21.2438 7.7619 21.5132 8.09524 21.7085 8.5C21.9028 8.90476 22 9.33333 22 9.78571V22.6429C22 23.4286 21.731 24.1014 21.1929 24.6614C20.6539 25.2205 20.0063 25.5 19.25 25.5H13.75V15.5H8.25V25.5H2.75Z" fill="#4B4B4B"/>
</svg>
